<?xml version="1.0" standalone="no"?><!DOCTYPE svg PUBLIC "-//W3C//DTD SVG 1.1//EN" "http://www.w3.org/Graphics/SVG/1.1/DTD/svg11.dtd"><svg width="200" height="200" viewBox="0 0 200 200" version="1.1" xmlns="http://www.w3.org/2000/svg" xmlns:xlink="http://www.w3.org/1999/xlink"><defs><style type="text/css"><![CDATA[
@font-face { font-family: ifont; src: url("http://at.alicdn.com/t/font_1442373896_4754455.eot?#iefix") format("embedded-opentype"), url("http://at.alicdn.com/t/font_1442373896_4754455.woff") format("woff"), url("http://at.alicdn.com/t/font_1442373896_4754455.ttf") format("truetype"), url("http://at.alicdn.com/t/font_1442373896_4754455.svg#ifont") format("svg"); }

]]></style></defs><g class="transform-group"><g transform="scale(0.1953125, 0.1953125)"><path d="M513.851167 0c-19.307804 0-38.993942 2.5627-58.98556 7.542391-77.775711 19.330811-129.640671 72.384455-154.816484 156.203282-18.131902 60.385139-17.86349 122.122566-5.439826 183.57752 15.805661 78.161714 46.715275 122.623602 95.871825 182.128093 1.947908 2.353083 4.303547 4.633311 5.396369 7.459311 17.146445 44.23182-20.364838 113.466902-66.171345 129.351808-35.525031 12.318855-70.738192 25.641061-105.096267 40.389687-54.758702 23.509099-107.611676 50.235313-153.727496 86.421149-29.025614 22.779272-56.903446 47.185636-66.204577 82.281207-4.776464 17.993861-4.099042 37.317004-4.449256 56.071367-0.446076 24.258097 9.154144 45.816732 28.813441 62.113204 14.036695 11.645267 46.501823 30.460982 46.501823 30.460982l160.70622-0.306757 275.017983 0 287.75735 0 146.732155 0c0 0 81.821071-56.693828 76.979421-108.960129-0.329764-3.535376-0.089471-4.970743 0-8.521457 0.614792-24.339899-11.564743-47.339014-26.681479-67.244995-24.520119-32.293856-57.62049-56.163394-93.063719-77.640227-67.051994-40.642762-140.2877-69.826867-216.383916-93.142965-30.307603-9.27429-68.670137-27.978806-69.214631-55.838743-0.489533-24.862665 3.35899-47.670056 19.6708-67.89941 40.699001-50.480718 67.013649-109.877844 83.379141-175.003658 14.560738-57.970705 18.116564-116.374704 7.157666-175.398608-11.086714-59.706439-36.569283-110.276628-81.763554-146.352544C604.964422 15.060496 560.545991 0 513.851167 0L513.851167 0 513.851167 0zM513.851167 0M831.785749 179.197284l179.19984 0c7.070752 0 12.799441 5.731246 12.799441 12.804553l0 25.595047c0 7.070752-5.728689 12.796884-12.799441 12.796884L831.785749 230.393769c-7.068195 0-12.799441-5.726133-12.799441-12.796884l0-25.595047C818.98503 184.929808 824.717554 179.197284 831.785749 179.197284zM831.785749 332.798243l179.19984 0c7.070752 0 12.799441 5.726133 12.799441 12.796884l0 25.605272c0 7.070752-5.728689 12.796884-12.799441 12.796884L831.785749 383.997284c-7.068195 0-12.799441-5.726133-12.799441-12.796884l0-25.605272C818.98503 338.524375 824.717554 332.798243 831.785749 332.798243zM780.585429 486.400479l230.40016 0c7.070752 0 12.799441 5.726133 12.799441 12.796884l0 25.602716c0 7.065639-5.728689 12.796884-12.799441 12.796884l-230.40016 0c-7.070752 0-12.799441-5.731246-12.799441-12.796884l0-25.602716C767.785988 492.126612 773.514678 486.400479 780.585429 486.400479zM908.586228 640.002716l102.400639 0c7.070752 0 12.799441 5.726133 12.799441 12.796884l0 25.595047c0 7.073308-5.728689 12.804553-12.799441 12.804553l-102.400639 0c-7.070752 0-12.799441-5.731246-12.799441-12.804553l0-25.595047C895.785509 645.730127 901.515477 640.002716 908.586228 640.002716z" fill="#272636"></path></g></g></svg>